<?xml version="1.0" standalone="no"?>
<!DOCTYPE svg PUBLIC "-//W3C//DTD SVG 20010904//EN"
 "http://www.w3.org/TR/2001/REC-SVG-20010904/DTD/svg10.dtd">
<svg version="1.0" xmlns="http://www.w3.org/2000/svg"
 width="512.000000pt" height="512.000000pt" viewBox="0 0 512.000000 512.000000"
 preserveAspectRatio="xMidYMid meet">
<metadata>
Created by potrace 1.14, written by Peter Selinger 2001-2017
</metadata>
<g transform="translate(0.000000,512.000000) scale(0.100000,-0.100000)"
fill="#000000" stroke="none">
<path d="M1962 4965 c45 -36 91 -72 100 -80 9 -7 70 -55 135 -106 158 -123
159 -124 93 -100 -30 11 -176 59 -325 106 -148 48 -315 103 -369 121 -55 19
-101 32 -103 30 -4 -4 112 -89 345 -255 56 -41 102 -74 102 -76 0 -2 -525 141
-775 210 -118 33 -130 31 -70 -7 28 -18 106 -69 175 -113 69 -45 162 -105 208
-134 45 -29 82 -54 82 -56 0 -2 -12 0 -27 5 -50 15 -365 111 -478 145 -60 18
-198 60 -305 93 -107 33 -220 68 -250 77 -30 9 -82 25 -115 35 -33 10 -121 37
-195 59 -74 23 -139 41 -145 41 -10 0 13 -22 125 -120 35 -30 74 -64 86 -75
35 -32 74 -66 144 -125 36 -30 72 -62 80 -70 13 -14 104 -91 169 -145 13 -11
33 -29 45 -41 12 -11 87 -78 168 -148 81 -70 150 -131 153 -136 5 -8 -17 -1
-120 40 -11 4 -119 43 -240 86 -121 43 -296 106 -390 140 -93 34 -172 60 -173
58 -3 -2 57 -93 308 -464 179 -264 288 -430 282 -430 -4 0 -79 25 -167 55 -88
31 -227 78 -308 106 -81 28 -150 50 -152 47 -2 -2 91 -156 207 -343 277 -448
298 -482 298 -492 0 -4 -99 -206 -220 -447 -121 -242 -218 -441 -215 -444 3
-3 175 141 241 204 6 5 35 30 64 55 28 24 64 55 78 68 l27 25 3 -58 c2 -36 -3
-74 -12 -97 -9 -22 -16 -41 -15 -44 0 -3 -24 -83 -54 -178 -31 -94 -79 -246
-107 -337 -28 -91 -58 -183 -65 -205 -37 -106 -87 -277 -83 -280 4 -4 213 350
298 504 46 83 92 161 94 161 2 0 3 -6 3 -12 1 -21 30 -126 63 -228 180 -549
567 -1013 1054 -1265 146 -76 360 -151 511 -181 22 -4 42 -8 45 -9 7 -2 139
-17 180 -21 52 -5 291 -5 320 0 14 2 51 7 84 11 161 19 342 69 519 145 48 21
87 36 87 33 0 -3 -33 -63 -74 -134 -41 -71 -72 -129 -68 -129 4 0 21 12 37 28
17 15 66 59 110 97 44 39 82 72 85 75 12 12 432 385 481 427 15 13 22 -7 77
-234 33 -136 66 -274 73 -306 7 -32 16 -54 20 -50 7 7 52 162 74 253 21 88 99
366 104 371 3 4 107 -138 231 -316 124 -178 228 -321 233 -318 4 2 6 7 3 11
-2 4 -6 30 -10 57 -3 28 -12 97 -21 155 -8 58 -22 155 -30 215 -9 61 -18 126
-21 145 -2 19 -9 69 -15 110 -6 41 -12 88 -15 104 -4 23 22 71 142 268 80 132
144 241 141 244 -2 3 -62 -18 -133 -46 -71 -27 -132 -50 -136 -50 -6 0 42 82
123 210 92 146 168 274 165 277 -2 2 -56 -25 -120 -61 -64 -35 -116 -63 -116
-62 0 2 47 108 105 236 58 128 103 235 100 238 -4 4 -65 -45 -163 -132 l-24
-21 20 50 c11 28 39 97 61 155 23 58 46 114 51 125 13 29 110 283 110 290 0
12 -17 3 -50 -28 -19 -17 -62 -54 -95 -81 -33 -27 -68 -56 -77 -64 -21 -18
-30 -47 106 363 58 176 106 323 106 328 0 4 -15 -4 -32 -17 -66 -51 -253 -184
-256 -182 -1 2 17 45 42 97 73 156 121 261 152 329 16 36 38 85 50 110 12 25
20 47 18 49 -2 2 -77 -55 -166 -127 -90 -71 -164 -129 -165 -128 -1 1 67 152
152 336 85 184 152 336 149 339 -2 2 -17 -7 -32 -20 -15 -14 -83 -75 -152
-135 -69 -60 -143 -126 -165 -146 -101 -92 -98 -98 -43 90 158 538 188 646
186 654 -2 5 -26 -22 -53 -59 -27 -37 -102 -139 -166 -225 -64 -87 -124 -168
-133 -180 -15 -22 -16 -12 -10 152 3 96 7 198 9 225 2 28 6 120 10 205 3 85 8
182 11 215 3 39 2 56 -5 50 -5 -5 -50 -111 -101 -235 -116 -286 -152 -373
-160 -383 -4 -4 -15 14 -25 40 -10 26 -28 71 -40 98 -13 28 -60 138 -105 245
-104 245 -119 280 -126 280 -5 0 -1 -76 11 -215 2 -27 7 -90 10 -140 3 -49 9
-108 11 -130 6 -44 -2 -41 -33 12 -10 17 -61 105 -113 194 -52 89 -107 183
-121 208 -15 25 -32 47 -39 49 -9 3 -10 0 -4 -9 10 -16 113 -362 106 -354 -3
2 -10 14 -16 25 -33 61 -292 447 -294 439 -3 -8 29 -167 48 -234 31 -112 35
-115 -200 120 -121 121 -220 216 -220 212 0 -8 28 -90 89 -255 24 -67 27 -80
13 -73 -23 13 -524 357 -538 370 -20 17 -23 0 -4 -22 68 -80 220 -273 220
-280 0 -4 -8 -3 -17 3 -24 13 -902 330 -915 330 -5 0 28 -29 74 -65z"/>
</g>
</svg>
